<?xml version="1.0" encoding="utf-8"?>
<!-- Generator: Adobe Illustrator 16.0.0, SVG Export Plug-In . SVG Version: 6.00 Build 0)  -->
<!DOCTYPE svg PUBLIC "-//W3C//DTD SVG 1.1//EN" "http://www.w3.org/Graphics/SVG/1.1/DTD/svg11.dtd">
<svg version="1.1" id="Layer_1" xmlns="http://www.w3.org/2000/svg" xmlns:xlink="http://www.w3.org/1999/xlink" x="0px" y="0px"
	 width="135px" height="48px" viewBox="0 0 135 48" enable-background="new 0 0 135 48" xml:space="preserve">
<g>
	<path fill="#FF0100" d="M21.143,0L0,12v24l21.143,12l21.143-12V12L21.143,0z M30.567,24.506l-5.932,3.201v0.439h5.929v4.627H11.704
		v-4.627h5.932v-0.439l-5.931-3.201v-5.729l9.432,5.089l9.431-5.089V24.506z"/>
	<g>
		<path fill="#222222" d="M63.991,11.973v14.23L71.93,18.6h3.835l-6.896,6.325l7.4,11.067h-3.634l-5.954-9.082l-2.691,2.488v6.594
			h-2.859V11.973H63.991z"/>
		<path fill="#222222" d="M78.591,15.472v-3.499h2.86v3.499H78.591z M81.451,18.6v17.392h-2.86V18.6H81.451z"/>
		<path fill="#222222" d="M88.481,18.6v3.667h0.067c0.695-1.413,1.547-2.456,2.557-3.128c1.009-0.673,2.288-0.987,3.835-0.942v3.027
			c-1.145,0-2.119,0.157-2.927,0.471s-1.458,0.774-1.951,1.379c-0.493,0.605-0.853,1.34-1.076,2.204
			c-0.225,0.865-0.337,1.857-0.337,2.978v7.736H85.79V18.6H88.481z"/>
		<path fill="#222222" d="M100.054,11.973v8.982h0.067c0.471-0.964,1.212-1.665,2.221-2.103c1.009-0.437,2.119-0.656,3.33-0.656
			c1.346,0,2.518,0.247,3.516,0.74c0.998,0.493,1.828,1.16,2.49,2.001c0.66,0.841,1.159,1.811,1.496,2.91
			c0.337,1.099,0.504,2.265,0.504,3.498c0,1.234-0.162,2.402-0.486,3.5c-0.326,1.1-0.82,2.059-1.48,2.875
			c-0.662,0.82-1.492,1.465-2.489,1.936c-0.999,0.471-2.159,0.707-3.482,0.707c-0.427,0-0.903-0.047-1.43-0.135
			c-0.527-0.092-1.049-0.236-1.564-0.438s-1.004-0.477-1.463-0.824c-0.46-0.348-0.848-0.779-1.161-1.295h-0.067v2.32h-2.859V11.973
			H100.054z M110.331,24.773c-0.213-0.773-0.538-1.463-0.976-2.069c-0.438-0.606-0.997-1.088-1.682-1.447
			c-0.684-0.358-1.486-0.538-2.406-0.538c-0.964,0-1.782,0.19-2.456,0.572c-0.672,0.382-1.222,0.88-1.647,1.497
			c-0.427,0.617-0.734,1.317-0.925,2.103c-0.191,0.787-0.286,1.582-0.286,2.388c0,0.852,0.101,1.678,0.302,2.473
			c0.203,0.797,0.522,1.498,0.96,2.102c0.438,0.607,1.003,1.094,1.699,1.465c0.693,0.369,1.535,0.555,2.522,0.555
			c0.986,0,1.811-0.189,2.473-0.572c0.661-0.379,1.194-0.885,1.599-1.514c0.403-0.627,0.695-1.346,0.875-2.152
			c0.179-0.809,0.268-1.637,0.268-2.488C110.65,26.338,110.544,25.547,110.331,24.773z"/>
		<path fill="#222222" d="M122.879,40.432c-0.325,0.584-0.685,1.061-1.076,1.432c-0.393,0.369-0.824,0.639-1.295,0.807
			c-0.472,0.168-1.032,0.252-1.683,0.252c-0.336,0-0.673-0.021-1.01-0.066c-0.335-0.047-0.66-0.123-0.975-0.236v-2.623
			c0.27,0.09,0.543,0.178,0.824,0.27c0.28,0.088,0.566,0.133,0.857,0.133c0.584,0,1.054-0.133,1.414-0.402
			c0.357-0.27,0.672-0.662,0.941-1.178l1.177-2.928L115.159,18.6h3.229l5.079,14.23h0.067l4.878-14.23h3.028l-7.569,19.679
			C123.535,39.131,123.204,39.85,122.879,40.432z"/>
	</g>
</g>
</svg>
