<?xml version="1.0" encoding="utf-8"?>
<!-- Generated by IcoMoon.io -->
<!DOCTYPE svg PUBLIC "-//W3C//DTD SVG 1.1//EN" "http://www.w3.org/Graphics/SVG/1.1/DTD/svg11.dtd">
<svg version="1.1" xmlns="http://www.w3.org/2000/svg" xmlns:xlink="http://www.w3.org/1999/xlink" width="500" height="500" viewBox="0 0 500 500">
<g id="icomoon-ignore">
	<line stroke-width="1" x1="" y1="" x2="" y2="" stroke="#449FDB" opacity=""></line>
</g>
	<path d="M484.503 425.486l-118.434-100.729c-12.243-11.019-25.337-16.077-35.914-15.589 27.957-32.748 44.845-75.233 44.845-121.668 0-103.554-83.946-187.5-187.5-187.5s-187.5 83.946-187.5 187.5c0 103.554 83.946 187.5 187.5 187.5 46.435 0 88.92-16.888 121.668-44.846-0.488 10.577 4.57 23.671 15.589 35.914l100.729 118.434c17.247 19.163 45.421 20.778 62.607 3.592s15.572-45.36-3.591-62.607zM187.5 312.5c-69.035 0-125-55.965-125-125s55.965-125 125-125 125 55.965 125 125-55.964 125-125 125z" fill="#cccccc"></path>
</svg>
