<?xml version="1.0" encoding="utf-8"?>
<!-- Generated by IcoMoon.io -->
<!DOCTYPE svg PUBLIC "-//W3C//DTD SVG 1.1//EN" "http://www.w3.org/Graphics/SVG/1.1/DTD/svg11.dtd">
<svg version="1.1" xmlns="http://www.w3.org/2000/svg" xmlns:xlink="http://www.w3.org/1999/xlink" width="500" height="500" viewBox="0 0 500 500">
<g id="icomoon-ignore">
	<line stroke-width="1" x1="" y1="" x2="" y2="" stroke="#449FDB" opacity=""></line>
</g>
	<path d="M500 406.25v-375h-343.75v36.082l-81.844 11.502 5.316 37.832-79.723 22.86 103.364 360.474 318.392-91.297 17.451-2.453h60.793zM187.5 62.5h281.25v312.5h-281.25v-312.5zM156.25 95.931v310.319h79.468l-85.018 11.948-44.307-315.262 49.856-7.006zM122.781 464.971l-87.752-306.026 48.675-13.957 42.893 305.197 93.649-13.162-97.465 27.948zM218.75 93.75h218.75v31.25h-218.75zM218.75 156.25h218.75v31.25h-218.75zM218.75 218.75h218.75v31.25h-218.75zM218.75 281.25h156.25v31.25h-156.25z" fill="#333333"></path>
</svg>
